<mxfile host="app.diagrams.net" modified="2023-05-31T23:21:08.353Z" agent="Mozilla/5.0 (Windows NT 10.0; Win64; x64) AppleWebKit/537.36 (KHTML, like Gecko) Chrome/113.0.0.0 Safari/537.36 Edg/113.0.1774.57" version="21.3.6" etag="Hk0HYC37lCUBAGGMA3P6" type="github">
  <diagram name="PÃ¡gina-1" id="GlnC0mhRKBa47u6Ss9dR">
    <mxGraphModel>
      <root>
        <mxCell id="0" />
        <mxCell id="1" parent="0" />
      </root>
    </mxGraphModel>
  </diagram>
</mxfile>
